<svg width="20" height="21" viewBox="0 0 20 21" fill="none" xmlns="http://www.w3.org/2000/svg">
<g clip-path="url(#clip0_1_1039)">
<circle cx="10" cy="10.5" r="9.5" stroke="#C4C4C4"/>
<path d="M11.1733 14.644C8.86931 14.644 7.05731 12.964 7.05731 10.504C7.05731 8.044 8.86931 6.364 11.1733 6.364C12.5893 6.364 13.5733 7.048 14.2093 7.948L13.3693 8.416C12.9133 7.744 12.0853 7.252 11.1733 7.252C9.42131 7.252 8.08931 8.596 8.08931 10.504C8.08931 12.4 9.42131 13.756 11.1733 13.756C12.0853 13.756 12.9133 13.276 13.3693 12.592L14.2213 13.06C13.5493 13.972 12.5893 14.644 11.1733 14.644Z" fill="#C4C4C4"/>
</g>
<defs>
<clipPath id="clip0_1_1039">
<rect width="20" height="20" fill="white" transform="translate(0 0.5)"/>
</clipPath>
</defs>
</svg>
