<svg width="20" height="21" viewBox="0 0 20 21" fill="none" xmlns="http://www.w3.org/2000/svg">
<g clip-path="url(#clip0_1_1033)">
<circle cx="10" cy="10.5" r="9.5" stroke="#C4C4C4"/>
<path d="M10.8106 14.5H7.16256V6.496H10.7266C12.1186 6.496 12.9706 7.336 12.9706 8.536C12.9706 9.544 12.2986 10.216 11.5666 10.372C12.4186 10.504 13.1266 11.38 13.1266 12.34C13.1266 13.624 12.2746 14.5 10.8106 14.5ZM10.5586 9.964C11.4586 9.964 11.9386 9.412 11.9386 8.68C11.9386 7.96 11.4586 7.384 10.5586 7.384H8.15856V9.964H10.5586ZM10.6066 13.612C11.5426 13.612 12.0946 13.084 12.0946 12.232C12.0946 11.5 11.5906 10.852 10.6066 10.852H8.15856V13.612H10.6066Z" fill="#C4C4C4"/>
</g>
<defs>
<clipPath id="clip0_1_1033">
<rect width="20" height="20" fill="white" transform="translate(0 0.5)"/>
</clipPath>
</defs>
</svg>
